<svg xmlns="http://www.w3.org/2000/svg" viewBox="0 0 500 500"><g id="freepik--background-simple--inject-61"><path d="M457.55,267.24c16.64-106.42-72.14-213.69-188.71-227-1.45-.17-2.9-.32-4.36-.47C183,31.67,108.58,93.89,87.29,141.34s-77,92.6-56.35,180.56,76.75,134.81,208.28,148.68S395,446.84,429.92,364.66A420.16,420.16,0,0,0,457.55,267.24Z" style="fill:#407BFF"></path><path d="M457.55,267.24c16.64-106.42-72.14-213.69-188.71-227-1.45-.17-2.9-.32-4.36-.47C183,31.67,108.58,93.89,87.29,141.34s-77,92.6-56.35,180.56,76.75,134.81,208.28,148.68S395,446.84,429.92,364.66A420.16,420.16,0,0,0,457.55,267.24Z" style="fill:#fff;opacity:0.8"></path></g><g id="freepik--Floor--inject-61"><rect x="12.78" y="439.71" width="467.8" height="1" style="fill:#263238"></rect></g><g id="freepik--Trees--inject-61"><path d="M428.15,352s1.4-3.07-15.75-10-34.58-2.68-41.47,6.51-14.11,10.34-19.69,14.17-8.71,11.11-3.4,18.77.86,11.11,3,15.7S363.07,406,368,404.42s14.31-5.74,23.13-5.36,21.06,8.81,34.92,10.34,21.92-6.89,21.67-12.64,6.78-2.68,6.14-17.62S428.15,352,428.15,352Z" style="fill:#407BFF"></path><path d="M364.44,384.28a9.51,9.51,0,0,0-4.47-3.2,12.09,12.09,0,0,0-4.48-.32,15.54,15.54,0,0,0,3.2,2.88C360.93,385.23,364.44,384.28,364.44,384.28Z" style="fill:#263238"></path><path d="M367.08,375.44a9.53,9.53,0,0,0-3.53-4.22,12.18,12.18,0,0,0-4.25-1.42,15.09,15.09,0,0,0,2.37,3.58C363.44,375.49,367.08,375.44,367.08,375.44Z" style="fill:#263238"></path><path d="M378.55,369.87a9.54,9.54,0,0,0-1.82-5.19,12.2,12.2,0,0,0-3.47-2.84,15.8,15.8,0,0,0,.95,4.2C375.12,368.63,378.55,369.87,378.55,369.87Z" style="fill:#263238"></path><path d="M389.83,366.29a9.45,9.45,0,0,0,1.32-5.33,12.08,12.08,0,0,0-1.36-4.28,15.58,15.58,0,0,0-1.49,4C387.64,363.38,389.83,366.29,389.83,366.29Z" style="fill:#263238"></path><path d="M409.13,366.06a9.41,9.41,0,0,0,3-4.59,12,12,0,0,0,.14-4.49,15.39,15.39,0,0,0-2.74,3.31C408,362.59,409.13,366.06,409.13,366.06Z" style="fill:#263238"></path><path d="M423.73,372.26a9.52,9.52,0,0,0,3-4.6,12.07,12.07,0,0,0,.13-4.48,15.75,15.75,0,0,0-2.74,3.31C422.63,368.79,423.73,372.26,423.73,372.26Z" style="fill:#263238"></path><path d="M430,380.21a9.46,9.46,0,0,0,4.64-3,12,12,0,0,0,2-4,15.62,15.62,0,0,0-3.86,1.88C430.41,376.59,430,380.21,430,380.21Z" style="fill:#263238"></path><path d="M432.63,388.3a9.55,9.55,0,0,0,5.49-.23,12,12,0,0,0,3.72-2.5,15.52,15.52,0,0,0-4.28-.31C434.81,385.38,432.63,388.3,432.63,388.3Z" style="fill:#263238"></path><path d="M421.7,394.47A9.43,9.43,0,0,0,427,396a12,12,0,0,0,4.32-1.18,15.39,15.39,0,0,0-4-1.65C424.69,392.4,421.7,394.47,421.7,394.47Z" style="fill:#263238"></path><path d="M400.19,377.15a9.5,9.5,0,0,0,1.31-5.34,12.09,12.09,0,0,0-1.35-4.27,15.58,15.58,0,0,0-1.49,4C398,374.24,400.19,377.15,400.19,377.15Z" style="fill:#263238"></path><path d="M366,390.37a9.56,9.56,0,0,0-5.37-1.18,12.11,12.11,0,0,0-4.24,1.47,15.4,15.4,0,0,0,4.07,1.39C363.15,392.63,366,390.37,366,390.37Z" style="fill:#263238"></path><path d="M377.51,384.94a9.47,9.47,0,0,0-5.37-1.18,12.11,12.11,0,0,0-4.24,1.47,15.87,15.87,0,0,0,4.07,1.38C374.66,387.2,377.51,384.94,377.51,384.94Z" style="fill:#263238"></path><path d="M376.13,380.22s13.22,13.4,16.83,17.23,5.49,11.87,5,18.39-4.69,24.51-4.69,24.51h12.64s-.88-11.49-1-23.36,1.2-16.47,2.27-18.39,7.51-12.26,7.51-12.26l8.74-10.72-14,13.79-1.67-15.27a.22.22,0,0,0-.43,0l-2,18-4.27,7.66-9.54-8,5.25-7.94a.29.29,0,0,0-.45-.37l-6.71,6.68Z" style="fill:#263238"></path><path d="M100.13,352s1.4-3.07-15.75-10-34.59-2.68-41.47,6.51S28.8,358.84,23.22,362.67s-8.71,11.11-3.41,18.77.87,11.11,3,15.7S35,406,40,404.42s14.31-5.74,23.14-5.36S84.15,407.87,98,409.4s21.92-6.89,21.68-12.64,6.77-2.68,6.13-17.62S100.13,352,100.13,352Z" style="fill:#407BFF"></path><path d="M36.42,384.28a9.5,9.5,0,0,0-4.48-3.2,12,12,0,0,0-4.47-.32,15.61,15.61,0,0,0,3.19,2.88C32.9,385.23,36.42,384.28,36.42,384.28Z" style="fill:#263238"></path><path d="M39.06,375.44a9.51,9.51,0,0,0-3.54-4.22,12.11,12.11,0,0,0-4.25-1.42,15.39,15.39,0,0,0,2.38,3.58C35.41,375.49,39.06,375.44,39.06,375.44Z" style="fill:#263238"></path><path d="M50.52,369.87a9.49,9.49,0,0,0-1.81-5.19,12.2,12.2,0,0,0-3.47-2.84,15.31,15.31,0,0,0,.95,4.2C47.1,368.63,50.52,369.87,50.52,369.87Z" style="fill:#263238"></path><path d="M61.81,366.29A9.48,9.48,0,0,0,63.12,361a12.2,12.2,0,0,0-1.35-4.28,15.58,15.58,0,0,0-1.49,4C59.62,363.38,61.81,366.29,61.81,366.29Z" style="fill:#263238"></path><path d="M81.11,366.06a9.48,9.48,0,0,0,3-4.59,12.28,12.28,0,0,0,.14-4.49,15.57,15.57,0,0,0-2.75,3.31C80,362.59,81.11,366.06,81.11,366.06Z" style="fill:#263238"></path><path d="M95.71,372.26a9.46,9.46,0,0,0,3-4.6,12,12,0,0,0,.14-4.48,15.39,15.39,0,0,0-2.74,3.31C94.61,368.79,95.71,372.26,95.71,372.26Z" style="fill:#263238"></path><path d="M102,380.21a9.46,9.46,0,0,0,4.64-3,12,12,0,0,0,2-4,15.57,15.57,0,0,0-3.87,1.88C102.38,376.59,102,380.21,102,380.21Z" style="fill:#263238"></path><path d="M104.6,388.3a9.55,9.55,0,0,0,5.49-.23,12.17,12.17,0,0,0,3.73-2.5,15.56,15.56,0,0,0-4.29-.31C106.79,385.38,104.6,388.3,104.6,388.3Z" style="fill:#263238"></path><path d="M93.67,394.47A9.46,9.46,0,0,0,99,396a12,12,0,0,0,4.33-1.18,15.39,15.39,0,0,0-4-1.65C96.67,392.4,93.67,394.47,93.67,394.47Z" style="fill:#263238"></path><path d="M72.16,377.15a9.47,9.47,0,0,0,1.32-5.34,12.09,12.09,0,0,0-1.35-4.27,15.32,15.32,0,0,0-1.5,4C70,374.24,72.16,377.15,72.16,377.15Z" style="fill:#263238"></path><path d="M38,390.37a9.52,9.52,0,0,0-5.36-1.18,12,12,0,0,0-4.24,1.47,15.4,15.4,0,0,0,4.07,1.39C35.13,392.63,38,390.37,38,390.37Z" style="fill:#263238"></path><path d="M49.49,384.94a9.47,9.47,0,0,0-5.37-1.18,12.11,12.11,0,0,0-4.24,1.47A15.67,15.67,0,0,0,44,386.61C46.63,387.2,49.49,384.94,49.49,384.94Z" style="fill:#263238"></path><path d="M48.11,380.22s13.21,13.4,16.82,17.23,5.49,11.87,5,18.39-4.69,24.51-4.69,24.51H77.89s-.88-11.49-1-23.36,1.21-16.47,2.27-18.39,7.52-12.26,7.52-12.26l8.73-10.72-14,13.79-1.67-15.27a.22.22,0,0,0-.44,0l-2,18-4.26,7.66-9.54-8,5.24-7.94a.29.29,0,0,0-.45-.37l-6.7,6.68Z" style="fill:#263238"></path><path d="M367.3,299.76s1.4-3.07-15.75-10-34.59-2.68-41.47,6.51S296,306.65,290.39,310.48s-8.71,11.11-3.4,18.77.86,11.11,3,15.7,12.25,8.81,17.17,7.28,14.3-5.75,23.13-5.36,21.06,8.81,34.92,10.34,21.91-6.9,21.67-12.64,6.78-2.68,6.13-17.62S367.3,299.76,367.3,299.76Z" style="fill:#407BFF"></path><path d="M303.59,332.08a9.51,9.51,0,0,0-4.48-3.19,12,12,0,0,0-4.47-.32,15.54,15.54,0,0,0,3.2,2.88C300.07,333,303.59,332.08,303.59,332.08Z" style="fill:#263238"></path><path d="M306.23,323.24a9.51,9.51,0,0,0-3.54-4.21,12.11,12.11,0,0,0-4.25-1.42,15.64,15.64,0,0,0,2.38,3.58C302.58,323.29,306.23,323.24,306.23,323.24Z" style="fill:#263238"></path><path d="M317.69,317.68a9.49,9.49,0,0,0-1.81-5.19,12.2,12.2,0,0,0-3.47-2.84,15.21,15.21,0,0,0,.95,4.19C314.27,316.44,317.69,317.68,317.69,317.68Z" style="fill:#263238"></path><path d="M329,314.1a9.47,9.47,0,0,0,1.32-5.34,12,12,0,0,0-1.36-4.27,15.58,15.58,0,0,0-1.49,4C326.79,311.19,329,314.1,329,314.1Z" style="fill:#263238"></path><path d="M348.28,313.87a9.53,9.53,0,0,0,3-4.6,12.22,12.22,0,0,0,.14-4.48,15.57,15.57,0,0,0-2.75,3.31C347.18,310.4,348.28,313.87,348.28,313.87Z" style="fill:#263238"></path><path d="M362.88,320.07a9.46,9.46,0,0,0,3-4.6A12,12,0,0,0,366,311a15.39,15.39,0,0,0-2.74,3.31C361.78,316.59,362.88,320.07,362.88,320.07Z" style="fill:#263238"></path><path d="M369.13,328a9.49,9.49,0,0,0,4.64-2.95,12,12,0,0,0,2-4,15.9,15.9,0,0,0-3.87,1.89C369.56,324.4,369.13,328,369.13,328Z" style="fill:#263238"></path><path d="M371.77,336.1a9.54,9.54,0,0,0,5.5-.22,12.19,12.19,0,0,0,3.72-2.5,15.56,15.56,0,0,0-4.29-.31C374,333.19,371.77,336.1,371.77,336.1Z" style="fill:#263238"></path><path d="M360.84,342.28a9.55,9.55,0,0,0,5.28,1.53,12.21,12.21,0,0,0,4.33-1.18,15.58,15.58,0,0,0-4-1.66C363.84,340.21,360.84,342.28,360.84,342.28Z" style="fill:#263238"></path><path d="M339.33,325a9.5,9.5,0,0,0,1.32-5.34,12.09,12.09,0,0,0-1.35-4.27,15.32,15.32,0,0,0-1.5,4C337.14,322.05,339.33,325,339.33,325Z" style="fill:#263238"></path><path d="M305.16,338.18a9.47,9.47,0,0,0-5.37-1.18,12,12,0,0,0-4.24,1.47,15.67,15.67,0,0,0,4.07,1.38C302.3,340.44,305.16,338.18,305.16,338.18Z" style="fill:#263238"></path><path d="M316.66,332.75a9.47,9.47,0,0,0-5.37-1.18,12.23,12.23,0,0,0-4.24,1.46,15.4,15.4,0,0,0,4.07,1.39C313.8,335,316.66,332.75,316.66,332.75Z" style="fill:#263238"></path><path d="M315.28,328s13.21,13.41,16.82,17.24,5.5,11.87,5,18.38-4.69,76.67-4.69,76.67h12.64s-.88-63.64-1-75.52,1.21-16.47,2.28-18.38,7.51-12.26,7.51-12.26l8.73-10.72-14,13.79L346.94,322a.22.22,0,0,0-.44,0l-2,18-4.26,7.66-9.54-8.05,5.24-7.93a.3.3,0,0,0-.45-.38l-6.7,6.68Z" style="fill:#263238"></path><path d="M236.26,299.76s1.4-3.07-15.75-10-34.58-2.68-41.47,6.51-14.11,10.34-19.69,14.17-8.71,11.11-3.4,18.77.86,11.11,3,15.7,12.26,8.81,17.17,7.28,14.31-5.75,23.13-5.36,21.06,8.81,34.92,10.34,21.92-6.9,21.67-12.64,6.78-2.68,6.14-17.62S236.26,299.76,236.26,299.76Z" style="fill:#407BFF"></path><path d="M172.55,332.08a9.52,9.52,0,0,0-4.47-3.19,12.09,12.09,0,0,0-4.48-.32,15.54,15.54,0,0,0,3.2,2.88C169,333,172.55,332.08,172.55,332.08Z" style="fill:#263238"></path><path d="M175.19,323.24a9.53,9.53,0,0,0-3.53-4.21,12.18,12.18,0,0,0-4.25-1.42,15.33,15.33,0,0,0,2.37,3.58C171.55,323.29,175.19,323.24,175.19,323.24Z" style="fill:#263238"></path><path d="M186.66,317.68a9.54,9.54,0,0,0-1.82-5.19,12.2,12.2,0,0,0-3.47-2.84,15.7,15.7,0,0,0,.95,4.19C183.23,316.44,186.66,317.68,186.66,317.68Z" style="fill:#263238"></path><path d="M197.94,314.1a9.47,9.47,0,0,0,1.32-5.34,12,12,0,0,0-1.36-4.27,15.58,15.58,0,0,0-1.49,4C195.75,311.19,197.94,314.1,197.94,314.1Z" style="fill:#263238"></path><path d="M217.24,313.87a9.46,9.46,0,0,0,3-4.6,12,12,0,0,0,.14-4.48,15.39,15.39,0,0,0-2.74,3.31C216.14,310.4,217.24,313.87,217.24,313.87Z" style="fill:#263238"></path><path d="M231.84,320.07a9.52,9.52,0,0,0,3-4.6A12.07,12.07,0,0,0,235,311a15.75,15.75,0,0,0-2.74,3.31C230.74,316.59,231.84,320.07,231.84,320.07Z" style="fill:#263238"></path><path d="M238.09,328a9.49,9.49,0,0,0,4.64-2.95,12,12,0,0,0,2-4,16,16,0,0,0-3.86,1.89C238.52,324.4,238.09,328,238.09,328Z" style="fill:#263238"></path><path d="M240.74,336.1a9.51,9.51,0,0,0,5.49-.22,12,12,0,0,0,3.72-2.5,15.52,15.52,0,0,0-4.28-.31C242.92,333.19,240.74,336.1,240.74,336.1Z" style="fill:#263238"></path><path d="M229.81,342.28a9.51,9.51,0,0,0,5.28,1.53,12.2,12.2,0,0,0,4.32-1.18,15.58,15.58,0,0,0-4-1.66C232.8,340.21,229.81,342.28,229.81,342.28Z" style="fill:#263238"></path><path d="M208.3,325a9.53,9.53,0,0,0,1.31-5.34,12.09,12.09,0,0,0-1.35-4.27,15.58,15.58,0,0,0-1.49,4C206.11,322.05,208.3,325,208.3,325Z" style="fill:#263238"></path><path d="M174.12,338.18a9.47,9.47,0,0,0-5.37-1.18,12.11,12.11,0,0,0-4.24,1.47,15.87,15.87,0,0,0,4.07,1.38C171.26,340.44,174.12,338.18,174.12,338.18Z" style="fill:#263238"></path><path d="M185.62,332.75a9.47,9.47,0,0,0-5.37-1.18A12.23,12.23,0,0,0,176,333a15.59,15.59,0,0,0,4.07,1.39C182.77,335,185.62,332.75,185.62,332.75Z" style="fill:#263238"></path><path d="M184.24,328s13.22,13.41,16.83,17.24,5.49,11.87,5,18.38-4.69,76.67-4.69,76.67H214s-.87-63.64-1-75.52,1.2-16.47,2.27-18.38,7.52-12.26,7.52-12.26l8.73-10.72-14,13.79L215.9,322a.22.22,0,0,0-.43,0l-2,18-4.27,7.66-9.54-8.05,5.25-7.93c.18-.29-.21-.62-.45-.38l-6.71,6.68Z" style="fill:#263238"></path></g><g id="freepik--Clouds--inject-61"><path d="M449.63,138.13H276.69l15.2-5.6c.59-1.31,4-8.26,10.31-10.16,3.93-1.18,8.39.46,12,1.77,2.38.88,4.63,1.7,5.28,1A10.61,10.61,0,0,0,321,122.7a19.69,19.69,0,0,1,9.35-9.71c4.6-2.29,9.81-.82,14,.36,3.26.92,6.08,1.72,7.39.41a12.26,12.26,0,0,0,1.88-3.51c2.25-5.33,6-14.26,24-14.79,21.94-.62,33.59,20.29,34.66,22.3,3.37,1.64,7,1.55,10.76,1.46,3.59-.08,7.29-.17,11.21,1.13,8.17,2.73,14.79,16.48,15.07,17.06Zm-167.33-1H448c-1.49-2.88-7.39-13.58-14.13-15.83-3.75-1.25-7.37-1.16-10.86-1.08-4,.1-7.74.19-11.38-1.63l-.15-.08-.08-.15c-.11-.22-11.52-22.58-33.81-21.9-17.34.51-20.81,8.74-23.1,14.18a12.57,12.57,0,0,1-2.09,3.82c-1.73,1.73-4.81.86-8.37-.15-4.23-1.19-9-2.55-13.27-.43a18.55,18.55,0,0,0-8.91,9.28,11.29,11.29,0,0,1-1.71,2.73c-1.11,1.11-3.3.3-6.34-.81-3.44-1.26-7.73-2.84-11.34-1.76-6.42,1.93-9.73,9.72-9.76,9.8l-.09.2Z" style="fill:#263238"></path><path d="M195.18,66.26H74.77L86,62.12c.48-1,2.83-5.73,7.18-7,2.76-.82,5.87.32,8.36,1.23,1.45.54,3.1,1.14,3.49.75a7.54,7.54,0,0,0,1-1.67,13.73,13.73,0,0,1,6.52-6.76c3.22-1.61,6.85-.59,9.76.24,2.2.62,4.1,1.16,4.94.31a8.22,8.22,0,0,0,1.27-2.36c1.56-3.72,4.18-9.93,16.69-10.3,15.07-.42,23.13,13.77,24,15.42,2.28,1.09,4.72,1,7.31,1a21.84,21.84,0,0,1,7.78.79c5.7,1.9,10.3,11.44,10.49,11.85Zm-114.8-1H193.57c-1.18-2.25-5.1-9.13-9.54-10.61a20.87,20.87,0,0,0-7.44-.74c-2.77.07-5.38.13-7.92-1.14l-.15-.08-.07-.15c-.08-.15-7.94-15.5-23.18-15-11.87.35-14.23,6-15.8,9.68A8.38,8.38,0,0,1,128,49.89c-1.25,1.26-3.42.65-5.92-.06-2.89-.82-6.17-1.75-9-.31A12.7,12.7,0,0,0,107,55.85a7.57,7.57,0,0,1-1.21,1.92c-.83.84-2.39.27-4.53-.52-2.36-.86-5.29-1.94-7.73-1.21-4.35,1.31-6.61,6.62-6.63,6.67l-.09.2Z" style="fill:#263238"></path><path d="M153.26,204.73H71.7L80,201.67c.39-.83,2-3.86,4.87-4.73,1.89-.57,4,.21,5.68.83.69.25,2,.72,2.15.54a4.91,4.91,0,0,0,.65-1.08,9.37,9.37,0,0,1,4.43-4.59c2.21-1.1,4.66-.41,6.63.15,1.42.4,2.65.75,3.14.26a5.53,5.53,0,0,0,.81-1.53c1.06-2.52,2.84-6.73,11.29-7,10-.27,15.43,9,16.16,10.33a10.3,10.3,0,0,0,4.75.6,14.88,14.88,0,0,1,5.25.54c3.87,1.29,7,7.72,7.1,8Zm-76-1h74.35c-.91-1.69-3.39-5.84-6.15-6.76a14.14,14.14,0,0,0-4.91-.49,10.7,10.7,0,0,1-5.36-.78l-.15-.07-.07-.15c-.06-.1-5.24-10.21-15.32-9.93-7.81.23-9.37,3.91-10.4,6.36a5.85,5.85,0,0,1-1,1.84c-.91.91-2.39.49-4.12,0-1.9-.53-4.05-1.14-5.91-.21a8.23,8.23,0,0,0-4,4.15,5.37,5.37,0,0,1-.84,1.32c-.64.64-1.71.24-3.2-.31s-3.48-1.27-5.06-.8c-2.83.85-4.3,4.32-4.32,4.35l-.08.21Z" style="fill:#263238"></path><path d="M442,285.66H360.46l8.32-3.06c.38-.82,2-3.85,4.86-4.72,1.9-.57,4,.2,5.69.82.69.25,2,.72,2.15.54a4.94,4.94,0,0,0,.65-1.07,9.29,9.29,0,0,1,4.43-4.59c2.2-1.1,4.66-.41,6.63.15,1.42.4,2.65.74,3.14.25a5.66,5.66,0,0,0,.81-1.53c1.06-2.51,2.83-6.72,11.28-7h.47c9.7,0,15,9,15.69,10.34a10.36,10.36,0,0,0,4.76.61,14.65,14.65,0,0,1,5.25.54c3.87,1.29,7,7.72,7.1,8Zm-76-1h74.35c-.91-1.68-3.39-5.84-6.15-6.76a13.89,13.89,0,0,0-4.91-.48,10.7,10.7,0,0,1-5.36-.78l-.15-.07-.08-.15c0-.1-5.1-9.95-14.89-9.95h-.43c-7.81.23-9.36,3.92-10.39,6.36a5.8,5.8,0,0,1-1,1.85c-.91.91-2.4.49-4.12,0-1.9-.54-4.05-1.15-5.91-.22a8.34,8.34,0,0,0-4,4.15,5.33,5.33,0,0,1-.83,1.33c-.64.63-1.72.24-3.21-.31s-3.48-1.28-5.05-.8c-2.82.84-4.31,4.32-4.32,4.35l-.09.2Z" style="fill:#263238"></path></g><g id="freepik--Wicket--inject-61"><rect x="120.51" y="303.1" width="29.34" height="2.74" style="fill:#407BFF"></rect><path d="M150.35,306.35H120V302.6h30.34Zm-29.34-1h28.34V303.6H121Z" style="fill:#263238"></path><rect x="144.64" y="303.1" width="5.21" height="137.11" style="fill:#407BFF"></rect><path d="M150.35,440.71h-6.21V302.6h6.21Zm-5.21-1h4.21V303.6h-4.21Z" style="fill:#263238"></path><rect x="133.67" y="303.1" width="5.21" height="137.11" style="fill:#407BFF"></rect><path d="M139.38,440.71h-6.21V302.6h6.21Zm-5.21-1h4.21V303.6h-4.21Z" style="fill:#263238"></path><rect x="120.51" y="303.1" width="5.21" height="137.11" style="fill:#407BFF"></rect><path d="M126.22,440.71H120V302.6h6.21Zm-5.21-1h4.21V303.6H121Z" style="fill:#263238"></path></g><g id="freepik--Character--inject-61"><path d="M248.88,344s1.77,22.52,2.43,37.54a152.75,152.75,0,0,0,3.53,26.72s-6.84-4.64-12.36-6-23.41-.88-30.26-3.53-7.29-4.42-8.39-5.08S196.1,386,191,393.06s.44,19.88-.66,21.65-4.86,8.39-3.76,15.68,2.43,11.26,4.86,10.38,10.38-14.58,12.37-18.55a50.37,50.37,0,0,1,3.75-6.41s20.32,8.17,31.14,13.25,31.8,8.83,35.78,1.77,12.14-21.2,13-37.1,6.4-51.24,6.4-51.24Z" style="fill:#407BFF"></path><path d="M190.82,441.39a2,2,0,0,1-1.06-.3c-1.59-.94-2.65-4-3.65-10.63-1.12-7.39,2.64-14.13,3.82-16,.26-.4-.13-2.42-.48-4.21-1-5-2.41-12.49,1.16-17.46a7.21,7.21,0,0,1,4.87-3.27c3.39-.45,6.49,2.09,8,3.31.28.23.49.41.62.49a4.62,4.62,0,0,1,.88.75c.88.87,2.35,2.32,7.43,4.29,4,1.56,12,2,19,2.45a81.68,81.68,0,0,1,11.15,1.06c4.33,1,9.35,4,11.49,5.36a160.61,160.61,0,0,1-3.27-25.61c-.65-14.83-2.41-37.3-2.43-37.52l0-.52.52,0L294.52,342l-.09.6c-.06.35-5.53,35.49-6.4,51.18s-8.62,29.38-12.78,36.77l-.32.55c-4.29,7.63-26,3.33-36.42-1.56-9.89-4.64-27.94-11.95-30.74-13.09a52,52,0,0,0-3.49,6c-1.29,2.57-9.77,17.75-12.65,18.8A2.4,2.4,0,0,1,190.82,441.39Zm5.46-50.94a5,5,0,0,0-.67,0,6.26,6.26,0,0,0-4.18,2.87c-3.32,4.62-1.92,11.88-1,16.68.55,2.84.79,4.23.35,4.93-1.13,1.82-4.75,8.29-3.68,15.34.57,3.79,1.53,8.95,3.17,9.92a1.1,1.1,0,0,0,1,.07c2-.75,9.63-13.38,12.09-18.31a51.2,51.2,0,0,1,3.8-6.47l.23-.32.36.15c.2.08,20.46,8.23,31.16,13.26,11.28,5.29,31.45,8.52,35.13,2l.31-.55c4.13-7.32,11.8-20.95,12.66-36.33.81-14.61,5.59-46,6.32-50.69l-43.93,1.51c.27,3.47,1.79,23.45,2.39,37a153,153,0,0,0,3.52,26.62l.31,1.26-1.08-.72c-.06-.05-6.83-4.61-12.2-5.89a82.22,82.22,0,0,0-11-1c-7.1-.42-15.16-.9-19.34-2.52-5.27-2-6.84-3.58-7.77-4.51a4.17,4.17,0,0,0-.7-.6c-.17-.11-.41-.3-.74-.57C201.55,392.54,199,390.45,196.28,390.45Z" style="fill:#263238"></path><path d="M250.74,358.61s5.18-5.18,16.28-8.51,24.78,4.07,24.78,4.07l2.56-13.82-33.63.5L248.88,344Z" style="fill:#263238"></path><path d="M250.37,359.68l-2-16,12.39-3.32,34.24-.51-2.79,15.1-.6-.33c-.14-.07-13.64-7.26-24.41-4s-16,8.33-16.07,8.38Zm-.94-15.27,1.68,13.19c1.79-1.52,6.88-5.31,15.76-8,10-3,21.75,2.39,24.56,3.8l2.32-12.56-32.95.49Z" style="fill:#263238"></path><rect x="256.84" y="352.31" width="1" height="18.96" transform="translate(-60.02 51.31) rotate(-10.2)" style="fill:#263238"></rect><rect x="259.82" y="374.79" width="1" height="6.44" transform="translate(-61.72 50.98) rotate(-10.01)" style="fill:#263238"></rect><path d="M204.49,401.53a8.28,8.28,0,0,1,3.81-4.48c-3.17-1.68-3.63-2.82-4.47-3.32-1.1-.67-7.73-7.73-12.81-.67s.44,19.88-.66,21.65-4.86,8.39-3.76,15.68,2.43,11.26,4.86,10.38,10.38-14.58,12.37-18.55a53.87,53.87,0,0,1,3.44-6C205.76,412.1,203.47,404.85,204.49,401.53Z" style="fill:#fff"></path><path d="M190.82,441.39a2,2,0,0,1-1.06-.3c-1.59-.94-2.65-4-3.65-10.63-1.12-7.39,2.64-14.13,3.82-16,.26-.4-.13-2.42-.48-4.21-1-5-2.41-12.49,1.17-17.46a7.17,7.17,0,0,1,4.86-3.27c3.39-.45,6.49,2.09,8,3.31.28.23.49.41.62.49a5,5,0,0,1,.89.75,13.42,13.42,0,0,0,3.55,2.56l.77.41-.74.45a7.73,7.73,0,0,0-3.59,4.2c-1,3.21,1.32,10.41,2.77,14.41l.09.25-.14.21a52.17,52.17,0,0,0-3.41,5.9c-1.29,2.57-9.77,17.75-12.65,18.8A2.4,2.4,0,0,1,190.82,441.39Zm5.46-50.94a5,5,0,0,0-.67,0,6.26,6.26,0,0,0-4.18,2.87c-3.32,4.62-1.92,11.88-1,16.68.55,2.84.79,4.23.35,4.93-1.13,1.82-4.75,8.29-3.68,15.34.57,3.79,1.53,8.95,3.17,9.92a1.1,1.1,0,0,0,1,.07c2-.75,9.63-13.38,12.09-18.31a54.81,54.81,0,0,1,3.34-5.8c-1.81-5-3.71-11.56-2.71-14.81h0a8.32,8.32,0,0,1,3.32-4.29,13.79,13.79,0,0,1-3.06-2.33,4.17,4.17,0,0,0-.7-.6c-.17-.11-.41-.3-.74-.57C201.55,392.54,199,390.45,196.28,390.45Z" style="fill:#263238"></path><path d="M212.22,398.81s-5.52,6-6,11l4.64.22s.88-7.95,6-9.72Z" style="fill:#263238"></path><path d="M211.34,410.59l-5.62-.27,0-.52c.45-5.19,5.86-11.09,6.1-11.33l.21-.24,6.34,2.11-1.39.48c-4.72,1.65-5.62,9.23-5.63,9.3Zm-4.52-1.22,3.64.18c.26-1.63,1.36-6.95,5-9.12l-3.13-1.05C211.41,400.49,207.46,405.2,206.82,409.37Z" style="fill:#263238"></path><path d="M238.94,401.9s-3.09,2.43-4.63,8.83l4.85.44s2-6,5.3-7.95C244.46,403.22,240.27,401.46,238.94,401.9Z" style="fill:#263238"></path><path d="M239.51,411.71l-5.83-.53.14-.57c1.57-6.49,4.68-9,4.81-9.11l.16-.08c1.42-.47,5.14,1,5.87,1.34l.91.38-.85.51c-3.11,1.87-5.06,7.62-5.08,7.68Zm-4.58-1.42,3.89.35c.46-1.25,2.08-5.24,4.6-7.29a11.67,11.67,0,0,0-4.24-1C238.74,402.74,236.32,405.08,234.93,410.29Z" style="fill:#263238"></path><path d="M187.49,410.51s12.81,5.74,21,8.83S237,431.27,248.66,434.8s29.59-.22,33.13-2.21,7.06-6.4,6-8.83-2.21-2.43-10.6-4.2-21.86-6.62-25.62-7.28-7.95-4-21.86-4-26.5-.22-31.8-.44S186.16,407.42,187.49,410.51Z" style="fill:#fff"></path><path d="M260.13,436.74a41,41,0,0,1-11.61-1.46c-8.15-2.46-20.23-7.38-29.93-11.34-4.19-1.71-7.81-3.19-10.3-4.13-8.09-3.06-20.88-8.79-21-8.84l-.18-.08-.07-.18a1.91,1.91,0,0,1,.08-1.93c1.16-1.68,5.38-1.64,10.78-1.42s17.87.44,31.78.44c10.25,0,15.35,1.81,18.72,3a21.7,21.7,0,0,0,3.23,1c1.67.29,5.2,1.39,9.29,2.67,5.18,1.61,11.63,3.62,16.34,4.62l2.19.45c6.49,1.35,7.66,1.59,8.76,4,1.33,2.92-2.77,7.57-6.17,9.48C279.45,434.48,269.73,436.74,260.13,436.74Zm-72.25-26.6c1.62.72,13.24,5.89,20.76,8.74,2.51.94,6.13,2.42,10.33,4.13,9.68,3.95,21.73,8.87,29.83,11.31,11.42,3.45,29.16-.15,32.74-2.16,3.33-1.87,6.7-6.1,5.75-8.19-.87-1.92-1.5-2.1-8.05-3.46l-2.19-.46c-4.76-1-11.24-3-16.44-4.64-4.06-1.26-7.56-2.36-9.17-2.64a22.13,22.13,0,0,1-3.39-1c-3.3-1.17-8.3-2.95-18.38-2.95-13.93,0-26.55-.22-31.82-.44-3.57-.15-9-.37-9.92,1A.83.83,0,0,0,187.88,410.14Z" style="fill:#263238"></path><path d="M254,434.67c-8.69-11.14-5-21.36-4.93-21.46l.93.35c0,.1-3.54,9.82,4.79,20.49Z" style="fill:#263238"></path><path d="M248.23,429.09c-3.8-6.7-2.55-16.26-2.49-16.66l1,.14c0,.09-1.26,9.63,2.37,16Z" style="fill:#263238"></path><path d="M305.73,203.91s-9.34-.2-13-1.42-14-5.28-20.1-3.65-8.53,3.65-12,7.92-17,37-16.85,47.1a12,12,0,0,0,9.14,12s-15,23.14-13.61,24.56,60.1,27.41,64.57,25.79,6.5-5.08,7.1-9.14,19.29-27.41,19.29-27.41l16.25-24.16s10.76-16.24,8.12-22.74-25.59-17.46-25.59-17.46Z" style="fill:#407BFF"></path><path d="M303.42,316.75c-4.06,0-20-6.34-33.14-11.85-14.65-6.16-30.45-13.29-31.3-14.14-1.39-1.39,6.3-14,13.17-24.63a12.56,12.56,0,0,1-8.85-12.26c-.21-10.38,13.49-43.14,17-47.43s6-6.42,12.24-8.09c5.59-1.49,14.31,1.55,19,3.19l1.4.48c3.54,1.18,12.75,1.39,12.85,1.39l.2.05,23.35,11.37c.94.45,23.15,11.13,25.83,17.73s-7.72,22.53-8.17,23.2l-16.24,24.16c-5.2,6.5-18.73,24-19.21,27.21-.72,4.79-3.22,8-7.43,9.53A1.91,1.91,0,0,1,303.42,316.75Zm-63.69-26.66c1.21.86,15.6,7.45,31.13,14,28,11.74,32.23,11.89,32.87,11.66,3.84-1.4,6.12-4.34,6.78-8.74.62-4.15,18.63-26.69,19.39-27.65l16.22-24.13c.1-.15,10.58-16.09,8.07-22.27s-25.1-17.09-25.33-17.2l-23.25-11.32c-1.12,0-9.52-.27-13-1.44l-1.41-.49c-4.25-1.48-13.11-4.57-18.4-3.16-6,1.59-8.35,3.59-11.72,7.75-3.14,3.88-16.94,36.66-16.74,46.78a11.61,11.61,0,0,0,8.74,11.5l.72.15-.4.61C246.48,276.7,239.56,288.48,239.73,290.09Z" style="fill:#263238"></path><path d="M346.54,255.48s10.76-16.24,8.12-22.74-25.59-17.46-25.59-17.46l-23.34-11.37s-9.34-.2-13-1.42-14-5.28-20.1-3.65-8.53,3.65-12,7.92-17,37-16.85,47.1a12.57,12.57,0,0,0,2.46,7.59c22.34-15.15,60.75-40.2,66.55-37.3s13.72,35.85,17.85,54.94Z" style="fill:#263238"></path><path d="M330.42,280.34l-.24-1.14c-7.07-32.64-13.48-52.54-17.6-54.6s-28.13,11.55-66,37.27l-.39.26-.29-.37a13.2,13.2,0,0,1-2.56-7.89c-.21-10.38,13.49-43.14,17-47.43s6-6.42,12.24-8.09c5.59-1.49,14.31,1.55,19,3.19l1.4.48c3.54,1.18,12.75,1.39,12.85,1.39l.2.05,23.35,11.37c.94.45,23.15,11.13,25.83,17.73s-7.72,22.53-8.17,23.2h0Zm-18.73-56.89a3.08,3.08,0,0,1,1.34.25c5.61,2.81,12.77,30.72,17.87,54.14l15.22-22.63c.14-.22,10.58-16.11,8.07-22.28s-25.1-17.09-25.33-17.2l-23.25-11.32c-1.12,0-9.52-.27-13-1.44l-1.41-.49c-4.25-1.48-13.11-4.57-18.4-3.16-6,1.59-8.35,3.59-11.72,7.75-3.14,3.88-16.94,36.66-16.74,46.78a12.28,12.28,0,0,0,2.08,6.92C272.07,243.35,303.26,223.45,311.69,223.45Z" style="fill:#263238"></path><path d="M299.34,228.15a50.69,50.69,0,0,1,2.27-23.2l.93.36A49.69,49.69,0,0,0,300.33,228Z" style="fill:#fff"></path><path d="M323.37,236.72l-.77-.64a28,28,0,0,0,2.33-3.22l.85.53A30.92,30.92,0,0,1,323.37,236.72Z" style="fill:#fff"></path><path d="M327.25,230.69l-.91-.43a23.88,23.88,0,0,0,2.44-11.67l1-.11A24.45,24.45,0,0,1,327.25,230.69Z" style="fill:#fff"></path><path d="M331.17,228.64l-.95-.32a26,26,0,0,0,1-8.94l1-.08A26.39,26.39,0,0,1,331.17,228.64Z" style="fill:#fff"></path><rect x="253.51" y="287.11" width="1" height="12.91" transform="translate(-120.46 191.21) rotate(-33.84)" style="fill:#263238"></rect><rect x="246.61" y="280.61" width="1" height="5.32" transform="translate(-115.88 185.58) rotate(-33.84)" style="fill:#263238"></rect><rect x="257.21" y="290.59" width="1" height="9.37" transform="translate(-112.89 167.75) rotate(-29.9)" style="fill:#263238"></rect><rect x="256.8" y="278.24" width="1" height="12.96" transform="translate(-117.41 201.91) rotate(-35.43)" style="fill:#263238"></rect><path d="M304.17,197c.73,0,.19,13.54-1.08,20.21s2.35,17.69,8.84,17.87,12.09-7.22,13.72-12.27a39.11,39.11,0,0,0,1.8-7l-22-22.38Z" style="fill:#fff"></path><path d="M312.17,235.57h-.25a7.58,7.58,0,0,1-5.64-3.16c-3-3.71-4.6-10.43-3.68-15.3,1.21-6.4,1.65-17.75,1.27-19.62h-.4l1.76-5L328,215.57l0,.23a38.61,38.61,0,0,1-1.83,7.15C324.47,228.09,318.92,235.57,312.17,235.57Zm-7.44-38.65c.71,2.06-.1,14.82-1.15,20.38-.87,4.61.66,11,3.48,14.48a6.54,6.54,0,0,0,4.89,2.79c6.05.18,11.58-6.82,13.22-11.93a43.42,43.42,0,0,0,1.75-6.7l-21.28-21.63Z" style="fill:#263238"></path><path d="M303.61,213.8l16.79-2.25-16-14.2C304.71,199.18,304.39,207.56,303.61,213.8Z" style="fill:#263238"></path><path d="M303,214.38l.08-.64c.8-6.34,1.09-14.55.75-16.29l-.29-1.45,18,15.9ZM305,198.57a113.42,113.42,0,0,1-.78,14.65l15.07-2Z" style="fill:#263238"></path><path d="M305.26,180.75s4.15-3.24,14.25-3.78,15.7,1.44,21.11,3.24a45,45,0,0,1,8.12,3.43s9,.9,9.39-.9-7.94-6.14-7.94-6.14.63-12.38-3.52-18.7-20.84-9.26-28.78-6.56-13.17,8.48-15,14.44a58.62,58.62,0,0,0-1.8,15.88C301.29,182.2,305.26,180.75,305.26,180.75Z" style="fill:#263238"></path><path d="M353.23,184.39c-1.69,0-3.41-.14-4.54-.25l-.2-.07a45,45,0,0,0-8-3.38l-.47-.16c-5.28-1.76-10.73-3.59-20.45-3.07s-13.93,3.66-14,3.69l-.13.07c-1.68.61-3.82,1.27-4.46,1a.67.67,0,0,1-.34-.38,57,57,0,0,1,1.8-16.18c2-6.67,7.74-12.18,15.3-14.76,8.22-2.81,25.1.28,29.36,6.76,3.86,5.88,3.68,16.64,3.61,18.68,2.72,1.44,8.29,4.63,7.92,6.53C358.37,184.07,355.83,184.39,353.23,184.39Zm-4.33-1.24c4.45.44,8.59.2,8.74-.51s-3.44-3.38-7.68-5.59l-.29-.15,0-.32c0-.12.57-12.3-3.44-18.4s-20.45-9-28.2-6.36c-7.25,2.47-12.73,7.74-14.66,14.1-1.66,5.47-1.92,13.71-1.83,15.36a19.25,19.25,0,0,0,3.46-1c.6-.44,4.89-3.33,14.47-3.84,9.9-.53,15.45,1.32,20.82,3.11l.47.16A46.83,46.83,0,0,1,348.9,183.15Z" style="fill:#263238"></path><path d="M307.06,173.18s15.88-4.88,22.38-4,18.94,6.85,18.94,6.85,5.78,3.07,7.58,4.15,4,1.81,2.17,2.53l-1.81.72s-1.08-1.08-6.49-3.61-17.69-8.48-22.38-8.48-21.29,4.51-21.29,4.51Z" style="fill:#fff"></path><path d="M356.2,184.05l-.23-.24s-1.17-1.09-6.36-3.5l-1.41-.67c-5.78-2.71-16.54-7.77-20.75-7.77-4.57,0-21,4.45-21.16,4.49l-.9.25,1.28-3.84.25-.07c.65-.2,16.06-4.9,22.58-4s18.59,6.66,19.1,6.9c.25.14,5.82,3.1,7.62,4.17.36.22.74.43,1.1.62,1.18.63,2,1.08,2,1.8,0,.56-.58.84-1,1Zm-28.75-13.18c4.43,0,14.91,4.92,21.17,7.87l1.42.66a36.35,36.35,0,0,1,6.37,3.49l1.53-.62.3-.14a8.2,8.2,0,0,0-1.39-.85c-.37-.2-.77-.41-1.15-.64-1.77-1.06-7.49-4.1-7.55-4.14s-12.44-5.92-18.78-6.8c-5.89-.81-19.89,3.27-21.92,3.88l-.52,1.58C310.49,174.21,323.33,170.87,327.45,170.87Z" style="fill:#263238"></path><path d="M348.74,183.64s-1.44.72-2.34,5.23a92.16,92.16,0,0,1-4,15.16c-2.35,6.5-11.55,13.53-17.32,13.89s-13.54-7.21-15.52-10.64S304.17,197,304.17,197l-1.8-17.5s7.22-4.87,12.63-5.59,15.88,0,21.65,1.44S348.74,183.64,348.74,183.64Z" style="fill:#fff"></path><path d="M324.69,218.44c-6.08,0-13.6-7.56-15.53-10.91s-5.4-10.24-5.43-10.31l-.05-.18-1.84-17.8.25-.16c.3-.2,7.38-5,12.84-5.68s16,0,21.84,1.46,12.08,8.16,12.34,8.44l.45.49-.58.29c-.07,0-1.29.89-2.09,4.89l-.23,1.16a86.65,86.65,0,0,1-3.76,14.07c-2.31,6.39-11.61,13.84-17.76,14.22Zm-20-21.59c.4.79,3.52,7,5.36,10.18s9.39,10.73,15.05,10.4c5.36-.34,14.51-7,16.89-13.57a85,85,0,0,0,3.72-13.92l.23-1.16c.63-3.16,1.54-4.57,2.11-5.18-1.41-1.43-6.69-6.58-11.49-7.77-5.76-1.44-16.19-2.14-21.46-1.44-4.68.63-10.86,4.5-12.17,5.35Z" style="fill:#263238"></path><path d="M334,192.75c-.94-5.59,3.37-10.33,3.55-10.53l.73.68s-4.15,4.58-3.3,9.68Z" style="fill:#263238"></path><path d="M302,170.65s-3.25,4.51-3.61,8.12.72,11.73,1.44,16.06,4.52,7,6.14,6.31,6.31-4.51,6.31-6.49-3.06-3.25-4.51-8.84-2.16-8.66-.72-12.63,1.63-7-.36-6.32S302,170.65,302,170.65Z" style="fill:#fff"></path><path d="M305.38,201.76a3.74,3.74,0,0,1-1.75-.51,9,9,0,0,1-4.28-6.34c-.71-4.27-1.82-12.49-1.45-16.19s3.57-8.17,3.7-8.36l0,0c.12-.13,2.82-3.17,4.9-3.93a1.43,1.43,0,0,1,1.61.23c1.17,1.17.12,4.72-.61,6.73-1.37,3.77-.73,6.66.74,12.33a15.68,15.68,0,0,0,3.13,6.15,4.81,4.81,0,0,1,1.39,2.82c0,2.35-5,6.24-6.61,6.95A1.91,1.91,0,0,1,305.38,201.76Zm-3-30.8c-.23.33-3.17,4.55-3.5,7.86-.36,3.6.73,11.7,1.44,15.93a8.05,8.05,0,0,0,3.76,5.62,2.17,2.17,0,0,0,1.68.32c1.74-.78,6-4.47,6-6,0-.67-.49-1.31-1.18-2.2a16.71,16.71,0,0,1-3.31-6.52c-1.52-5.87-2.18-8.88-.71-12.93,1.2-3.28,1.28-5.24.84-5.67-.09-.1-.28-.1-.56,0C305.11,168,302.63,170.71,302.4,171Z" style="fill:#263238"></path><path d="M326.82,217.63a18.37,18.37,0,0,1-14.19-6.78c-4.56-5.36-9.31-13.52-9-20.38l0-.43.43,0c1.28-.12,31.44-2.74,43.91,12.08l.22.26-.16.3c-.23.45-5.79,11-14.9,14A21,21,0,0,1,326.82,217.63ZM304.66,191c-.12,6.48,4.4,14.15,8.74,19.24,2.92,3.43,9.33,8.7,19.49,5.44,7.9-2.52,13.2-11.44,14.17-13.17C335.58,189.27,308.44,190.69,304.66,191Z" style="fill:#263238"></path><path d="M315.08,199.58l-.88-.48a10.86,10.86,0,0,0,.88-8.42l.93-.36A11.62,11.62,0,0,1,315.08,199.58Z" style="fill:#263238"></path><path d="M315.29,212.38l-.58-.82a24.59,24.59,0,0,0,6-7.24c3-5,2.65-13,2.64-13.08l1,0c0,.34.33,8.33-2.77,13.62A25.19,25.19,0,0,1,315.29,212.38Z" style="fill:#263238"></path><path d="M334,215.84a24.05,24.05,0,0,1,.19-7.39c.72-3.8,4.21-12.37,4.36-12.73l.92.38c0,.09-3.6,8.84-4.3,12.54a23.29,23.29,0,0,0-.18,7Z" style="fill:#263238"></path><path d="M341.48,206.42l-1-.09a10.34,10.34,0,0,1,3.62-7l.61.8A9.49,9.49,0,0,0,341.48,206.42Z" style="fill:#263238"></path><path d="M342.65,209.47c-15.68-12.86-34-9.32-34.23-9.28l-.2-1c.19,0,19-3.68,35.07,9.49Z" style="fill:#263238"></path><path d="M325.81,184.88c-.21,1.22-1,2.11-1.81,2s-1.25-1.24-1-2.47,1-2.11,1.8-2S326,183.65,325.81,184.88Z" style="fill:#263238"></path><path d="M341.5,188c-.21,1.23-1,2.12-1.8,2s-1.25-1.23-1-2.46,1-2.12,1.8-2S341.71,186.81,341.5,188Z" style="fill:#263238"></path><path d="M329.47,182.58c-4.7-4-8.64-1.85-8.81-1.75l-.5-.87s4.7-2.65,10,1.86Z" style="fill:#263238"></path><path d="M344.13,185c-2-1.32-5.38-.83-5.42-.82l-.15-1c.16,0,3.83-.56,6.13,1Z" style="fill:#263238"></path><path d="M331.42,198.58a7,7,0,0,1-3.33-1l.53-.85a6,6,0,0,0,2.8.83,7.92,7.92,0,0,0,3.34-1.19l.54.84A8.73,8.73,0,0,1,331.42,198.58Z" style="fill:#263238"></path><path d="M233.65,203.1s1.62,9.54,5.89,12.18,5.07,4.67,5.07,4.67l-2.43,7.11s1.42,2.64,6.9,3.25,6.7-1.42,6.7-1.42a46.57,46.57,0,0,1,2.23-7.72c1.22-2.64,2-7.11,1.42-9.74s-12-19.09-12-19.09-3.86-6.5-7.31-5.08-7.92,4.06-7.52,7.52S233.65,203.1,233.65,203.1Z" style="fill:#fff"></path><path d="M251,230.92a17.84,17.84,0,0,1-2-.12c-5.68-.63-7.23-3.39-7.29-3.5l-.11-.2,2.44-7.11c-.28-.5-1.42-2.19-4.8-4.28-4.4-2.73-6.05-12.13-6.11-12.52v0s-.61-4.87-1-8.33c-.47-4,4.69-6.74,7.82-8,3.8-1.57,7.76,5,7.93,5.28.44.65,11.41,16.53,12,19.23.66,2.85-.24,7.45-1.45,10.07a45.79,45.79,0,0,0-2.2,7.6l-.06.16C256.16,229.23,255.09,230.92,251,230.92ZM242.73,227c.42.55,2.09,2.34,6.41,2.82,4.49.5,5.92-.84,6.17-1.13a44.71,44.71,0,0,1,2.25-7.72c1.15-2.48,2-6.86,1.39-9.42-.48-2.09-8.76-14.36-11.91-18.92-1-1.73-4.2-5.92-6.7-4.89-2.31.94-7.62,3.52-7.21,7s1,8,1,8.31,1.7,9.37,5.66,11.83c4.35,2.69,5.24,4.82,5.28,4.91l.07.17Z" style="fill:#263238"></path><path d="M255.78,228.89s.33-1.66.84-3.57c-4.78.35-10-1.32-13-2.51l-1.45,4.25s1.42,2.64,6.9,3.25S255.78,228.89,255.78,228.89Z" style="fill:#263238"></path><path d="M251,230.92a17.84,17.84,0,0,1-2-.12c-5.68-.63-7.23-3.39-7.29-3.5l-.11-.2,1.7-4.94.49.19c2.71,1.07,8,2.82,12.77,2.47l.7,0-.19.68c-.49,1.87-.83,3.52-.83,3.53l-.06.16C256.16,229.23,255.09,230.92,251,230.92ZM242.73,227c.42.55,2.09,2.34,6.41,2.82,4.49.5,5.92-.84,6.17-1.13.08-.36.31-1.48.66-2.82a33.1,33.1,0,0,1-12-2.39Z" style="fill:#263238"></path><polygon points="342.07 265.84 335.92 263.53 343.37 260.22 342.07 265.84" style="fill:#263238"></polygon><path d="M342.43,266.51l-7.83-2.94,9.49-4.22Zm-5.19-3,4.47,1.68,1-4.09Z" style="fill:#263238"></path><path d="M321.16,241.88l-15.23,1.62s-7.11-9.34-16.24-15-23.35-20.1-23.35-20.1l-4.27-4.67-7.91,6.7s10.35,14.42,11.77,16.85,8.53,19.9,15.84,27,13.2,14.22,16,14,19.69-2,27-2,15.84-4.26,16.45-5.07,2.43-3.66-.61-8.53a28.09,28.09,0,0,0-9.75-9.54C328.47,241.88,321.16,241.88,321.16,241.88Z" style="fill:#fff"></path><path d="M297.69,268.78c-2.35,0-6-3.71-10.94-8.8-1.7-1.74-3.45-3.53-5.33-5.36-5.84-5.67-11.58-18-14.34-23.86-.72-1.54-1.29-2.75-1.58-3.25-1.39-2.38-11.65-16.66-11.75-16.81l-.27-.37,8.64-7.31,4.59,5c.13.13,14.26,14.43,23.24,20,8.32,5.17,15.05,13.45,16.2,14.92l15-1.6c.3,0,7.45,0,10,1.27a28.67,28.67,0,0,1,9.94,9.73c2.93,4.68,1.63,7.7.59,9.09-.8,1.07-9.6,5.27-16.85,5.27-5.54,0-16.8,1.08-22.85,1.66-2,.18-3.44.32-4.12.37Zm-42.86-58.29c1.67,2.33,10.23,14.28,11.53,16.52.31.53.86,1.7,1.62,3.33,2.74,5.85,8.43,18,14.14,23.57,1.88,1.83,3.64,3.63,5.34,5.37,4.45,4.55,8.31,8.5,10.22,8.5h.09c.68,0,2.15-.19,4.09-.38,6.07-.58,17.36-1.66,22.95-1.66,7.27,0,15.52-4.24,16.05-4.88.88-1.17,2-3.78-.64-8a27.36,27.36,0,0,0-9.54-9.36c-2.23-1.12-9-1.17-9.5-1.17L305.7,244l-.17-.22c-.07-.1-7.16-9.34-16.11-14.91s-23.3-20-23.44-20.17l-4-4.33Z" style="fill:#263238"></path><path d="M345.72,228.89s-10.15,3.85-16.85,8.12-7.71,4.87-7.71,4.87,10.76,3.45,15.43,9.54,5.48,14.42,5.48,14.42,12.59-4.87,16.65-17.06.81-15.83-2.64-18.68-8.12-1.82-8.12-1.82" style="fill:#407BFF"></path><path d="M341.63,266.54l-.06-.65c0-.09-.86-8.26-5.38-14.16s-15.08-9.34-15.19-9.37L320,242l.95-.57s1.11-.67,7.7-4.86,16.84-8.13,16.95-8.17l.35.93c-.1,0-10.18,3.89-16.76,8.08-3.88,2.47-5.85,3.71-6.83,4.32,2.82,1,10.75,4.26,14.67,9.37s5.2,11.86,5.5,14c2.52-1.14,12.33-6.18,15.76-16.49,3.89-11.65,1.05-15.23-2.48-18.13-3.22-2.65-7.65-1.73-7.7-1.72l-.21-1c.2,0,4.95-1,8.55,1.93s6.88,7,2.79,19.22-16.81,17.31-16.94,17.36Z" style="fill:#263238"></path><path d="M253.46,216.08a3.49,3.49,0,0,1-.65-.06,3.55,3.55,0,0,1-2.37-1.65l-5.64-9.32,7.23-3.77,4.63,9.74a3.56,3.56,0,0,1-1.05,4.33A3.51,3.51,0,0,1,253.46,216.08Zm-7.25-10.63,5.08,8.4A2.51,2.51,0,0,0,253,215a2.53,2.53,0,0,0,2.77-3.58l-4.19-8.8Z" style="fill:#263238"></path><path d="M186.48,74l-15,11.76,44.81,78.74,6,2.19s4.65,1.09,6.3-1.09,2.18-11.49,2.18-11.49Z" style="fill:#fff"></path><path d="M224.77,167.45a13.09,13.09,0,0,1-2.63-.28l-6.25-2.27-.09-.16-45-79.12,15.85-12.39L231.24,154v.15c0,.38-.57,9.47-2.28,11.76C228,167.14,226.26,167.45,224.77,167.45Zm-2.35-1.24s4.31,1,5.73-.92c1.24-1.67,1.91-8.42,2.08-11.08L186.32,74.74,172.08,85.88l44.5,78.2,5.84,2.13Z" style="fill:#263238"></path><path d="M228.55,165.59c1.64-2.19,2.18-11.49,2.18-11.49l-1.83-3.34-13.21-5.5.55,19.23,6,2.19S226.9,167.77,228.55,165.59Z" style="fill:#407BFF"></path><path d="M224.77,167.45a13.09,13.09,0,0,1-2.63-.28l-6.39-2.32-.58-20.35,14.08,5.86,2,3.62v.15c0,.38-.57,9.47-2.28,11.76h0C228,167.14,226.26,167.45,224.77,167.45Zm-2.35-1.24s4.31,1,5.73-.92h0c1.24-1.67,1.91-8.42,2.08-11.08l-1.69-3.06L216.22,146l.51,18.13,5.69,2.07Z" style="fill:#263238"></path><path d="M239.13,166.15s-5.28-6.09-13-4.26-10.76,11.16-9.34,14,4.46,2,6.49.61l8.74-6.09,8.32-2.84Z" style="fill:#fff"></path><path d="M219.75,178.3a3.73,3.73,0,0,1-1-.12,3.65,3.65,0,0,1-2.41-2.06c-.75-1.51-.39-4.38.89-7.13A13.29,13.29,0,0,1,226,161.4c7.92-1.88,13.43,4.36,13.49,4.42h0l1.7,2-9,3.05-8.67,6A7.19,7.19,0,0,1,219.75,178.3ZM229,162.05a12.24,12.24,0,0,0-2.75.32c-4.88,1.16-7.29,5.31-8.1,7-1.28,2.74-1.42,5.22-.9,6.26a2.69,2.69,0,0,0,1.76,1.54,5.23,5.23,0,0,0,4-1.12l8.73-6.09.12-.06,7.63-2.6-.74-.86C238.68,166.4,234.8,162.05,229,162.05Z" style="fill:#263238"></path><path d="M231.82,190.51s-6.7-3.65-8.32-7.1-.61-11,6.09-15.23,14-1.83,18.88,1.83,9.34,12.18,11.57,21.11,3.66,14.21,3.66,14.21l2.84,3.46-8.32,7.91a23.6,23.6,0,0,1-5.69-5.68c-3-4.06-6.5-13.6-8.73-18.07s-6.29-5.08-7.1-4.26S231.82,190.51,231.82,190.51Z" style="fill:#fff"></path><path d="M258.28,217.33l-.33-.2a24.06,24.06,0,0,1-5.82-5.81c-2.07-2.77-4.28-7.92-6.23-12.47-.94-2.17-1.81-4.21-2.55-5.68a7.36,7.36,0,0,0-5-4.24,1.68,1.68,0,0,0-1.25.11c-.87.87-4.41,1.78-5.11,2l-.19,0-.17-.09c-.28-.15-6.86-3.77-8.53-7.33-1.76-3.73-.54-11.53,6.27-15.86,8.53-5.43,17,0,19.45,1.85,4.79,3.59,9.41,12,11.76,21.39,2,8.15,3.41,13.31,3.62,14.1l3.07,3.73Zm-20.53-29.45a4.53,4.53,0,0,1,.71.06,8.39,8.39,0,0,1,5.79,4.79c.74,1.48,1.63,3.55,2.56,5.73,1.93,4.49,4.12,9.59,6.12,12.26a25.54,25.54,0,0,0,5.23,5.34l7.7-7.32-2.64-3.28c0-.05-1.45-5.38-3.66-14.22-2.3-9.19-6.77-17.37-11.39-20.83-2.28-1.71-10.33-6.89-18.31-1.81-6.33,4-7.51,11.19-5.91,14.59,1.4,3,6.9,6.2,7.94,6.79,1.54-.4,4-1.15,4.45-1.65A2,2,0,0,1,237.75,187.88Z" style="fill:#263238"></path><path d="M258.22,216.7l8.32-7.91-2.84-3.46-.2-.75-10.06,7.59A22.07,22.07,0,0,0,258.22,216.7Z" style="fill:#263238"></path><path d="M258.28,217.33l-.33-.2a22.75,22.75,0,0,1-4.9-4.64l-.33-.41,11.07-8.35.36,1.37,3.07,3.73Zm-4.12-5.08a23.42,23.42,0,0,0,4,3.81l7.7-7.32-2.65-3.31Z" style="fill:#263238"></path><path d="M225.62,185.28l-1-.09c0-.12,1.16-12.15,10.71-15.05s13.24-.66,13.4-.56l-.52.85s-3.64-2.06-12.59.66S225.63,185.16,225.62,185.28Z" style="fill:#263238"></path><path d="M230.26,188.85l-.94-.33c.16-.46,4-11.44,10.5-13.11,6.2-1.6,11.21-1.74,15.51,2.78l-.72.69c-4-4.18-8.52-4.06-14.54-2.5S230.3,188.74,230.26,188.85Z" style="fill:#263238"></path><path d="M242.18,227.06s-6.91,16.44-9.14,24.77,1.62,21.52,5.69,22.13,21.11-15.23,23.75-22.74l2.64-7.51-8.93-10.56-.41-4.26S250.91,231.12,242.18,227.06Z" style="fill:#fff"></path><path d="M238.93,274.47a1.27,1.27,0,0,1-.28,0c-1.07-.16-2.11-1-3.09-2.5-2.83-4.32-4.76-13.7-3-20.25,2.21-8.26,9.09-24.67,9.16-24.83l.2-.48.47.22c8.38,3.89,13.14,1.84,13.18,1.82l.64-.28.46,4.8,9,10.65L263,251.39C260.42,258.59,243.79,274.47,238.93,274.47Zm3.51-46.74c-1.15,2.76-6.93,16.82-8.92,24.23-1.69,6.3.16,15.3,2.87,19.44a4.06,4.06,0,0,0,2.41,2.06l.21,0c4.1,0,20.42-15.07,23-22.43l2.54-7.24-8.85-10.46-.36-3.78C253.75,230,249.3,230.8,242.44,227.73Z" style="fill:#263238"></path><path d="M255,259.07l-1-.28c1.39-4.75,1.6-25.44,1.61-25.64h1C256.68,234,256.47,254.19,255,259.07Z" style="fill:#263238"></path><path d="M239.33,290.4a140.46,140.46,0,0,0-9.74,18.48c-3.45,8.53-.61,19.09,1.83,25.18s12.38,13,28.42,14.61,18.07,0,24.77-2.23,9.34-1,9.34-1,2,.81,1.62,7.91,1.22,23.35,6.1,30.26,13,25.58,15.63,30.45,3,19.9,3,22.34a4,4,0,0,0,4.07,3.85c1.82,0,30.45,1.83,30.45,1.83s12.38-1,12.59-4.47-2-2-6.09-4.87S347.14,422,347.14,422,344.3,416.08,337,403.9s-13.19-55.43-17.66-64.56-7.92-16.86-13.81-21.32-14.62-8.53-30-13.61-25.58-9.13-25.58-9.13Z" style="fill:#407BFF"></path><path d="M354.9,442.57c-.36,0-28.7-1.83-30.49-1.83a4.53,4.53,0,0,1-4.57-4.36c0-3.29-.53-17.56-3-22.09-.83-1.53-2.22-4.46-3.83-7.86-3.56-7.52-8.45-17.83-11.77-22.55-5.12-7.25-6.57-23.75-6.18-30.56.36-6.47-1.32-7.43-1.34-7.44s-2.61-1.09-9,1l-2.09.72c-5.32,1.86-8.53,3-22.89,1.53-16.46-1.66-26.35-8.7-28.84-14.93-1.82-4.54-5.63-16.13-1.82-25.55a141.4,141.4,0,0,1,9.78-18.55l.24-.37,10.95,5.05c.08,0,10.29,4.11,25.53,9.12,15.05,4.95,24.08,9,30.2,13.68,5.54,4.2,9,11.28,13,19.47l1,2c1.91,3.91,4,13.69,6.45,25,3.29,15.25,7,32.54,11.19,39.51,6.71,11.19,9.7,17.15,10.12,18,1,.79,10.3,8,14.1,10.67a14.24,14.24,0,0,0,3.74,1.85c1.57.56,2.71,1,2.57,3.46C367.73,441.41,356.21,442.46,354.9,442.57Zm-63.31-98a6.87,6.87,0,0,1,2.57.37c.22.09,2.33,1.15,1.91,8.4s1.25,23.21,6,29.94c3.38,4.78,8.28,15.14,11.87,22.7,1.6,3.37,3,6.29,3.8,7.8,2.92,5.4,3.1,22.41,3.1,22.57a3.53,3.53,0,0,0,3.57,3.36c1.82,0,29.31,1.76,30.48,1.83,4.55-.38,11.93-1.8,12.06-4,.1-1.74-.36-1.91-1.91-2.46a15,15,0,0,1-4-2c-4-2.82-14.13-10.7-14.23-10.78l-.09-.07-.06-.1c0-.06-2.92-6-10.13-18-4.26-7.11-8-24.49-11.3-39.82-2.33-10.79-4.52-21-6.38-24.78l-1-2c-3.92-8.08-7.32-15-12.67-19.11-6-4.57-15-8.62-29.9-13.53-15.27-5-25.51-9.11-25.61-9.15L239.53,291a137.8,137.8,0,0,0-9.48,18c-3.67,9.07.06,20.37,1.83,24.8,2.3,5.76,12.05,12.69,28,14.31,14.14,1.43,17.27.33,22.46-1.49l2.1-.72A23,23,0,0,1,291.59,344.6Z" style="fill:#263238"></path><path d="M361.36,432.73C357.3,429.89,347.14,422,347.14,422s-.88-1.83-2.92-5.54l-.62.64s-11.1,1.85-12.58,5.18l-1.48,3.33-9.68,1.07c.39,4.47.48,8.56.48,9.74a4,4,0,0,0,4.06,3.85c1.83,0,30.46,1.83,30.46,1.83s12.38-1,12.59-4.47S365.42,435.57,361.36,432.73Z" style="fill:#fff"></path><path d="M354.9,442.57c-.36,0-28.7-1.83-30.49-1.83a4.53,4.53,0,0,1-4.57-4.36c0-1.07-.08-5.16-.48-9.68l0-.49,9.88-1.1,1.36-3.07c1.49-3.35,11.06-5.14,12.79-5.44l1-1,.32.6c1.75,3.19,2.66,5,2.88,5.46,1,.79,10.3,8,14.1,10.67a14.24,14.24,0,0,0,3.74,1.85c1.57.56,2.71,1,2.57,3.46C367.73,441.41,356.21,442.46,354.9,442.57Zm-34.5-15.48c.36,4.37.44,8.25.44,9.29a3.53,3.53,0,0,0,3.57,3.36c1.82,0,29.31,1.76,30.48,1.83,4.55-.38,11.93-1.8,12.06-4,.1-1.74-.36-1.91-1.91-2.46a15,15,0,0,1-4-2c-4-2.82-14.13-10.7-14.23-10.78l-.09-.07-.06-.1s-.8-1.67-2.58-4.93l-.27.27-.16,0c-3,.5-11.08,2.36-12.2,4.89l-1.6,3.59Z" style="fill:#263238"></path><path d="M307.15,302.18s-8.33,1-13.2,3.05-6.09,4.06-6.09,5.68,6.5,29.44,6.5,29.44-1.22,3.86-.41,5.08.81,2,1.62,2.23,3.25,23.15,9.95,34.72,13.4,24.16,15.43,34.92,5.69,17.26,11.17,17.46,6.29-9.74,7.51-12.18,7.51-.61,7.51-.61,1.43-1.22-.6-7.11S337,396.79,335,391.11s-3-33.5-6.7-46.9l-1.62-7.72s0-2.64-.81-3.65l-.82-1s-6.09-16-8.52-21.52S312,302.59,307.15,302.18Z" style="fill:#fff"></path><path d="M332.29,435.26h-.19c-5.52-.2-9.44-6.22-11.64-17.87-2-10.7-8.58-23-15.37-34.76-4.78-8.26-7.4-22.22-8.81-29.72-.41-2.2-.81-4.28-1-4.82a2.22,2.22,0,0,1-1.13-1.3,7.28,7.28,0,0,0-.6-1.09c-.85-1.27,0-4.45.31-5.37-.8-3.41-6.48-27.81-6.48-29.42,0-2.31,2.15-4.38,6.4-6.15,4.88-2,13-3,13.33-3.08h.1c5.31.44,7.38,3.07,9.75,8.42s8.06,20.28,8.51,21.47l.77,1c.85,1.06.91,3.44.92,3.91l1.61,7.67c2,7.47,3.24,19.18,4.29,29.52.81,8,1.51,14.85,2.39,17.31A110.18,110.18,0,0,0,341,402.33a109.51,109.51,0,0,1,6,12.37c2,5.91.74,7.41.46,7.65l-.21.18-.25-.08c-1.53-.44-6.09-1.33-6.93.35a17.17,17.17,0,0,0-.86,2.78C338.21,429.45,336.69,435.26,332.29,435.26ZM307.16,302.68c-.7.09-8.46,1.11-13,3-3.84,1.6-5.78,3.35-5.78,5.22,0,1.15,3.88,18.17,6.48,29.33l0,.13,0,.13c-.47,1.51-.93,3.95-.46,4.65a10.33,10.33,0,0,1,.66,1.2c.3.6.4.76.67.82.51.13.61.5,1.56,5.56,1.4,7.44,4,21.28,8.7,29.4,6.83,11.8,13.44,24.22,15.48,35.08s5.77,16.87,10.7,17.05c3.76.14,5.17-5.32,6.11-8.93a17.27,17.27,0,0,1,.94-3c1.22-2.46,6.24-1.36,7.73-1,.22-.52.58-2.19-.86-6.36a106.31,106.31,0,0,0-5.94-12.23,108.49,108.49,0,0,1-5.63-11.52c-.92-2.58-1.63-9.51-2.44-17.54-1.05-10.31-2.25-22-4.27-29.4l-1.64-7.85a7.16,7.16,0,0,0-.7-3.34l-.89-1.15c-.06-.16-6.12-16.09-8.52-21.5C313.5,304.82,311.51,303.06,307.16,302.68Z" style="fill:#263238"></path><path d="M297.18,346.7l-.37-.93c.89-.35,21.87-8.56,29.75-9.77l.15,1C318.94,338.18,297.4,346.62,297.18,346.7Z" style="fill:#263238"></path><path d="M296.59,342.43l-.41-.91c.15-.07,15.2-6.75,26.08-9.37l.23,1C311.7,335.72,296.74,342.36,296.59,342.43Z" style="fill:#263238"></path><polygon points="298.57 360.6 295.48 361.48 295.92 365.68 299.45 365.24 298.57 360.6" style="fill:#263238"></polygon><path d="M295.48,366.24l-.54-5.12,4-1.15,1.08,5.7Zm.54-4.39.34,3.27,2.5-.31-.68-3.58Z" style="fill:#263238"></path><polygon points="312.93 396.16 308.73 397.7 310.72 401.68 314.47 399.91 312.93 396.16" style="fill:#263238"></polygon><path d="M310.49,402.34,308,397.43l5.17-1.91,1.91,4.64ZM309.43,398l1.51,3,2.89-1.36-1.18-2.87Z" style="fill:#263238"></path><path d="M241.77,209.19s16-5.28,16-11-5.89-13.61-7.31-15.43-5.89-3.86-7.51-3.45-9.54,6.9-11.17,11.16,3.45,17.87,4.67,19.29" style="fill:#fff"></path><path d="M236.11,210.13c-1.2-1.41-6.47-15.29-4.75-19.8,1.65-4.33,9.64-11,11.51-11.47s6.48,1.65,8,3.63c1.74,2.24,7.41,10,7.41,15.74,0,6-15.71,11.22-16.38,11.44l-.32-.95c4.37-1.44,15.7-6.13,15.7-10.49,0-5.58-6-13.58-7.2-15.13-1.38-1.77-5.65-3.6-7-3.27s-9.26,6.77-10.82,10.86c-1.49,3.9,3.36,17.36,4.58,18.79Z" style="fill:#263238"></path><path d="M232.15,190.89l-.66-.75c.47-.42,11.58-10.2,18.3-8.1l-.3,1C243.29,181.07,232.27,190.79,232.15,190.89Z" style="fill:#263238"></path><path d="M236.77,202.91l-.56-.83c.57-.38,13.89-9.25,21.14-7l-.3,1C250.25,193.93,236.91,202.82,236.77,202.91Z" style="fill:#263238"></path><path d="M235.55,195.2l-.55-.84c.55-.36,13.42-8.63,18-7.79l-.18,1C248.63,186.78,235.68,195.11,235.55,195.2Z" style="fill:#263238"></path><path d="M236.63,325.35c-3.57,0-8-5.92-8.23-6.17l.8-.6c1.2,1.6,4.88,5.77,7.43,5.77a21.77,21.77,0,0,0,5-1.27,71.28,71.28,0,0,1,21.06-3.95c14.12-.38,20.44,1.8,20.7,1.89l-.33.94c-.06,0-6.45-2.2-20.34-1.83A70.37,70.37,0,0,0,242,324,21.2,21.2,0,0,1,236.63,325.35Z" style="fill:#263238"></path></g></svg>
